<svg width="24" height="24" viewBox="0 0 24 24" fill="none" xmlns="http://www.w3.org/2000/svg">
<g clip-path="url(#clip0_686_553)">
<path d="M1.71436 6H22.2858" stroke="#1D3F33" stroke-width="1.71429" stroke-linecap="round" stroke-linejoin="round"/>
<path d="M4.28564 6H19.7142V21.4286C19.7142 21.6537 19.6699 21.8766 19.5837 22.0846C19.4976 22.2926 19.3713 22.4816 19.2121 22.6408C19.0529 22.7999 18.8639 22.9262 18.656 23.0124C18.448 23.0985 18.2251 23.1429 17.9999 23.1429H5.99993C5.54527 23.1429 5.10924 22.9622 4.78775 22.6408C4.46626 22.3193 4.28564 21.8832 4.28564 21.4286V6Z" fill="#72C183"/>
<path d="M4.28564 6H19.7142V21.4286C19.7142 21.6537 19.6699 21.8766 19.5837 22.0846C19.4976 22.2926 19.3713 22.4816 19.2121 22.6408C19.0529 22.7999 18.8639 22.9262 18.656 23.0124C18.448 23.0985 18.2251 23.1429 17.9999 23.1429H5.99993C5.54527 23.1429 5.10924 22.9622 4.78775 22.6408C4.46626 22.3193 4.28564 21.8832 4.28564 21.4286V6Z" stroke="#1D3F33" stroke-width="1.71429" stroke-linecap="round" stroke-linejoin="round"/>
<path d="M7.71436 6.00003V5.14289C7.71436 4.00625 8.16588 2.91616 8.96961 2.11243C9.77334 1.30871 10.8634 0.857178 12.0001 0.857178C13.1367 0.857178 14.2268 1.30871 15.0305 2.11243C15.8343 2.91616 16.2858 4.00625 16.2858 5.14289V6.00003" stroke="#1D3F33" stroke-width="1.71429" stroke-linecap="round" stroke-linejoin="round"/>
<path d="M9.42871 11.1445V18.0051" stroke="#1D3F33" stroke-width="1.71429" stroke-linecap="round" stroke-linejoin="round"/>
<path d="M14.5713 11.1445V18.0051" stroke="#1D3F33" stroke-width="1.71429" stroke-linecap="round" stroke-linejoin="round"/>
</g>
<defs>
<clipPath id="clip0_686_553">
<rect width="24" height="24" fill="white"/>
</clipPath>
</defs>
</svg>
