<svg width="24" height="24" viewBox="0 0 24 24" fill="none" xmlns="http://www.w3.org/2000/svg">
<g clip-path="url(#clip0_686_575)">
<path d="M0.856934 12C0.857065 14.2038 1.51065 16.358 2.73506 18.1903C3.95946 20.0226 5.69969 21.4507 7.73569 22.2941C9.7717 23.1374 12.0121 23.3581 14.1735 22.9282C16.3349 22.4983 18.3203 21.4371 19.8786 19.8789L11.9998 12V0.857178C9.04452 0.857178 6.21029 2.03115 4.1206 4.12084C2.03091 6.21054 0.856934 9.04477 0.856934 12Z" fill="#72C183"/>
<path fill-rule="evenodd" clip-rule="evenodd" d="M12 0.857178V12L19.8789 19.8789C21.4371 18.3205 22.4982 16.3351 22.9281 14.1737C23.358 12.0123 23.1374 9.77195 22.294 7.73594C21.4507 5.69993 20.0226 3.9597 18.1903 2.7353C16.358 1.5109 14.2038 0.857309 12 0.857178Z" fill="white"/>
<path d="M11.9998 23.1429C14.9551 23.1429 17.7893 21.9689 19.879 19.8792C21.9687 17.7895 23.1426 14.9553 23.1426 12C23.1426 9.04477 21.9687 6.21054 19.879 4.12084C17.7893 2.03115 14.9551 0.857178 11.9998 0.857178C9.04452 0.857178 6.21029 2.03115 4.1206 4.12084C2.03091 6.21054 0.856934 9.04477 0.856934 12C0.856934 14.9553 2.03091 17.7895 4.1206 19.8792C6.21029 21.9689 9.04452 23.1429 11.9998 23.1429Z" stroke="#1D3F33" stroke-width="1.71429" stroke-linecap="round" stroke-linejoin="round"/>
<path d="M12 0.857178V12L19.8857 19.8857" stroke="#1D3F33" stroke-width="1.71429" stroke-linecap="round" stroke-linejoin="round"/>
</g>
<defs>
<clipPath id="clip0_686_575">
<rect width="24" height="24" fill="white"/>
</clipPath>
</defs>
</svg>
