<svg width="24" height="24" viewBox="0 0 24 24" fill="none" xmlns="http://www.w3.org/2000/svg">
<g clip-path="url(#clip0_686_480)">
<path d="M7.06787 9.76782H16.9336V12.425C16.9095 13.7173 16.3792 14.9486 15.4567 15.854C14.5343 16.7595 13.2933 17.2667 12.0007 17.2667C10.7082 17.2667 9.4672 16.7595 8.54473 15.854C7.62226 14.9486 7.09196 13.7173 7.06787 12.425V9.76782Z" fill="#72C183"/>
<path d="M7.06641 9.76782H16.9338V12.425C16.9338 13.7335 16.414 14.9884 15.4888 15.9136C14.5635 16.8389 13.3086 17.3587 12.0001 17.3587C10.6916 17.3587 9.43671 16.8389 8.51146 15.9136C7.58621 14.9884 7.06641 13.7335 7.06641 12.425V9.76782Z" stroke="#1D3F33" stroke-width="1.71429" stroke-linecap="round" stroke-linejoin="round"/>
<path d="M9.32227 9.76804V5.74976" stroke="#1D3F33" stroke-width="1.71429" stroke-linecap="round" stroke-linejoin="round"/>
<path d="M14.6792 9.76804V5.74976" stroke="#1D3F33" stroke-width="1.71429" stroke-linecap="round" stroke-linejoin="round"/>
<path d="M12 17.3571V20.9999C12 21.9462 12.7714 22.7279 13.7074 22.5788C16.3603 22.1422 18.7522 20.7246 20.4087 18.607C22.0653 16.4894 22.8655 13.8266 22.6506 11.1466C22.4357 8.4667 21.2214 5.9654 19.2486 4.13884C17.2758 2.31228 14.6885 1.29389 12 1.28565C9.6407 1.28477 7.34706 2.06266 5.47504 3.4986C3.60303 4.93454 2.25731 6.94822 1.64674 9.22717C1.03617 11.5061 1.19489 13.9229 2.09826 16.1024C3.00163 18.2819 4.59914 20.1023 6.64287 21.2811" stroke="#1D3F33" stroke-width="1.71429" stroke-linecap="round" stroke-linejoin="round"/>
</g>
<defs>
<clipPath id="clip0_686_480">
<rect width="24" height="24" fill="white"/>
</clipPath>
</defs>
</svg>
