<svg width="24" height="24" viewBox="0 0 24 24" fill="none" xmlns="http://www.w3.org/2000/svg">
<g clip-path="url(#clip0_686_581)">
<path fill-rule="evenodd" clip-rule="evenodd" d="M18.8567 20.7839C17.5045 21.8393 15.9269 22.5684 14.2468 22.9143C12.5667 23.2603 10.8294 23.2138 9.17024 22.7785C7.51104 22.3433 5.97469 21.5309 4.6808 20.4047C3.38692 19.2785 2.37042 17.8689 1.71045 16.2856H4.71388C5.50953 16.2856 6.27259 15.9695 6.8352 15.4069C7.39781 14.8443 7.71388 14.0812 7.71388 13.2856V10.7142C7.71388 9.91851 8.02995 9.15545 8.59256 8.59284C9.15517 8.03023 9.91823 7.71416 10.7139 7.71416C11.5095 7.71416 12.2726 7.39809 12.8352 6.83548C13.3978 6.27287 13.7139 5.50981 13.7139 4.71416V0.987305C16.3116 1.39215 18.6827 2.70223 20.408 4.68603C22.1333 6.66984 23.1018 9.19966 23.1424 11.8284C22.2841 11.3831 21.3323 11.1481 20.3653 11.1427H16.7139C15.9182 11.1427 15.1552 11.4588 14.5926 12.0214C14.0299 12.584 13.7139 13.3471 13.7139 14.1427C13.7139 14.9384 14.0299 15.7014 14.5926 16.2641C15.1552 16.8267 15.9182 17.1427 16.7139 17.1427C16.9953 17.1427 17.2739 17.1982 17.5339 17.3058C17.7939 17.4135 18.0301 17.5714 18.2291 17.7704C18.4281 17.9693 18.5859 18.2056 18.6936 18.4656C18.8013 18.7255 18.8567 19.0042 18.8567 19.2856V20.7839Z" fill="#72C183"/>
<path fill-rule="evenodd" clip-rule="evenodd" d="M0.856944 12C0.856601 10.3915 1.20449 8.80203 1.87669 7.34077C2.5489 5.87951 3.5295 4.5811 4.7511 3.53476C5.9727 2.48841 7.40635 1.71894 8.95354 1.27922C10.5007 0.839494 12.1248 0.739939 13.7141 0.987395V4.71425C13.7141 5.5099 13.398 6.27296 12.8354 6.83557C12.2728 7.39818 11.5097 7.71425 10.7141 7.71425C9.91844 7.71425 9.15538 8.03032 8.59277 8.59293C8.03016 9.15554 7.71409 9.9186 7.71409 10.7143V13.2857C7.71409 14.0813 7.39802 14.8444 6.83541 15.407C6.2728 15.9696 5.50974 16.2857 4.71409 16.2857H1.71066C1.14513 14.9277 0.854949 13.471 0.856944 12ZM23.1427 11.8285C22.2843 11.3832 21.3325 11.1482 20.3655 11.1428H16.7141C15.9184 11.1428 15.1554 11.4589 14.5928 12.0215C14.0302 12.5841 13.7141 13.3472 13.7141 14.1428C13.7141 14.9385 14.0302 15.7015 14.5928 16.2641C15.1554 16.8268 15.9184 17.1428 16.7141 17.1428C16.9955 17.1428 17.2741 17.1982 17.5341 17.3059C17.7941 17.4136 18.0303 17.5715 18.2293 17.7705C18.4283 17.9694 18.5861 18.2057 18.6938 18.4656C18.8015 18.7256 18.8569 19.0043 18.8569 19.2857V20.784C20.193 19.7428 21.2736 18.4103 22.0164 16.8879C22.7591 15.3656 23.1443 13.6938 23.1427 12V11.8285Z" fill="white"/>
<path d="M11.9998 23.1429C14.9551 23.1429 17.7893 21.9689 19.879 19.8792C21.9687 17.7895 23.1426 14.9553 23.1426 12C23.1426 9.04477 21.9687 6.21054 19.879 4.12084C17.7893 2.03115 14.9551 0.857178 11.9998 0.857178C9.04452 0.857178 6.21029 2.03115 4.1206 4.12084C2.03091 6.21054 0.856934 9.04477 0.856934 12C0.856934 14.9553 2.03091 17.7895 4.1206 19.8792C6.21029 21.9689 9.04452 23.1429 11.9998 23.1429Z" stroke="#1D3F33" stroke-width="1.71429" stroke-linecap="round" stroke-linejoin="round"/>
<path d="M1.71387 16.2856H4.71387C5.50952 16.2856 6.27258 15.9696 6.83519 15.4069C7.3978 14.8443 7.71387 14.0813 7.71387 13.2856V10.7142C7.71387 9.91854 8.02994 9.15548 8.59255 8.59287C9.15516 8.03026 9.91822 7.71419 10.7139 7.71419C11.5095 7.71419 12.2726 7.39812 12.8352 6.83551C13.3978 6.2729 13.7139 5.50984 13.7139 4.71419V0.977051" stroke="#1D3F33" stroke-width="1.71429" stroke-linecap="round" stroke-linejoin="round"/>
<path d="M23.1424 11.8285C22.2841 11.3832 21.3323 11.1482 20.3653 11.1428H16.7139C15.9182 11.1428 15.1552 11.4589 14.5925 12.0215C14.0299 12.5841 13.7139 13.3472 13.7139 14.1428C13.7139 14.9385 14.0299 15.7015 14.5925 16.2641C15.1552 16.8268 15.9182 17.1428 16.7139 17.1428C16.9953 17.1428 17.2739 17.1982 17.5339 17.3059C17.7939 17.4136 18.0301 17.5715 18.2291 17.7704C18.4281 17.9694 18.5859 18.2057 18.6936 18.4656C18.8013 18.7256 18.8567 19.0043 18.8567 19.2857V20.7771" stroke="#1D3F33" stroke-width="1.71429" stroke-linecap="round" stroke-linejoin="round"/>
</g>
<defs>
<clipPath id="clip0_686_581">
<rect width="24" height="24" fill="white"/>
</clipPath>
</defs>
</svg>
