<svg width="24" height="24" viewBox="0 0 24 24" fill="none" xmlns="http://www.w3.org/2000/svg">
<path d="M4.7006 7.31311L0.939453 5.28853V13.4794L10.1057 19.728C10.6844 20.1225 11.3699 20.3304 12.0702 20.3236C12.7705 20.3169 13.452 20.0958 14.0229 19.6902L22.9749 13.4382V4.51196L18.336 7.01996L14.8509 6.64625C13.5748 6.5097 12.2938 6.85517 11.2595 7.61482C11.2356 7.61461 11.2126 7.60613 11.1943 7.59082C10.7667 7.22579 10.2639 6.95956 9.72164 6.81111C9.17938 6.66265 8.61106 6.63563 8.05717 6.73196L4.69888 7.31311H4.7006Z" fill="#72C183"/>
<path d="M0.939453 5.28857L4.7006 7.31143L8.0606 6.732C8.62 6.6352 9.19394 6.66421 9.74074 6.81692C10.2875 6.96963 10.7934 7.24221 11.2217 7.61486" stroke="#1D3F33" stroke-width="1.71429" stroke-linecap="round" stroke-linejoin="round"/>
<path d="M19.3406 15.9121L14.0229 19.6904C13.452 20.0959 12.7705 20.317 12.0702 20.3237C11.3699 20.3305 10.6844 20.1226 10.1057 19.7281L0.939453 13.4795" stroke="#1D3F33" stroke-width="1.71429" stroke-linecap="round" stroke-linejoin="round"/>
<path d="M22.975 13.44L19.2122 16.0114L13.3733 11.2971L11.2253 12.8588C10.8049 13.1641 10.2824 13.2942 9.76794 13.222C9.25346 13.1497 8.78708 12.8806 8.46702 12.4714C8.14825 12.0625 8.00035 11.546 8.05437 11.0304C8.1084 10.5148 8.36014 10.0402 8.75673 9.70625L10.9939 7.82568C11.5241 7.37931 12.1392 7.04473 12.802 6.84205C13.4648 6.63937 14.1618 6.57277 14.851 6.64625L18.3362 7.01996L22.975 4.51196" stroke="#1D3F33" stroke-width="1.71429" stroke-linecap="round" stroke-linejoin="round"/>
<path d="M13.373 11.3091C14.7788 12.5606 16.7708 11.9211 17.5113 10.8994" stroke="#1D3F33" stroke-width="1.71429" stroke-linecap="round" stroke-linejoin="round"/>
</svg>
