<svg width="24" height="24" viewBox="0 0 24 24" fill="none" xmlns="http://www.w3.org/2000/svg">
<g clip-path="url(#clip0_686_503)">
<path d="M1.35922 22.6407C1.03771 22.3193 0.857031 21.8833 0.856934 21.4287V9.42871H23.1426V21.4287C23.1426 21.8834 22.962 22.3194 22.6405 22.6409C22.3191 22.9624 21.883 23.143 21.4284 23.143H2.57122C2.1166 23.1429 1.68064 22.9622 1.35922 22.6407Z" fill="#72C183"/>
<path d="M1.35922 3.931C1.68064 3.60948 2.1166 3.42881 2.57122 3.42871H21.4284C21.883 3.42871 22.3191 3.60932 22.6405 3.93081C22.962 4.2523 23.1426 4.68834 23.1426 5.143V9.42871H0.856934V5.143C0.857031 4.68838 1.03771 4.25241 1.35922 3.931Z" fill="white"/>
<path d="M2.57122 3.42871C2.11656 3.42871 1.68053 3.60932 1.35904 3.93081C1.03755 4.2523 0.856934 4.68834 0.856934 5.143V21.4287C0.856934 21.8834 1.03755 22.3194 1.35904 22.6409C1.68053 22.9624 2.11656 23.143 2.57122 23.143H21.4284C21.883 23.143 22.3191 22.9624 22.6405 22.6409C22.962 22.3194 23.1426 21.8834 23.1426 21.4287V5.143C23.1426 4.68834 22.962 4.2523 22.6405 3.93081C22.3191 3.60932 21.883 3.42871 21.4284 3.42871H17.9998" stroke="#1D3F33" stroke-width="1.71429" stroke-linecap="round" stroke-linejoin="round"/>
<path d="M0.856934 9.42871H23.1426" stroke="#1D3F33" stroke-width="1.71429" stroke-linecap="round" stroke-linejoin="round"/>
<path d="M6 0.857178V6.00003" stroke="#1D3F33" stroke-width="1.71429" stroke-linecap="round" stroke-linejoin="round"/>
<path d="M18 0.857178V6.00003" stroke="#1D3F33" stroke-width="1.71429" stroke-linecap="round" stroke-linejoin="round"/>
<path d="M6 3.42871H14.5714" stroke="#1D3F33" stroke-width="1.71429" stroke-linecap="round" stroke-linejoin="round"/>
</g>
<defs>
<clipPath id="clip0_686_503">
<rect width="24" height="24" fill="white"/>
</clipPath>
</defs>
</svg>
