<svg width="24" height="24" viewBox="0 0 24 24" fill="none" xmlns="http://www.w3.org/2000/svg">
<path d="M14.5612 8.17191V0.896484H9.43896V8.17191C7.72965 8.77609 6.28897 9.96511 5.37156 11.5288C4.45415 13.0925 4.11908 14.9302 4.42558 16.717C4.73209 18.5039 5.66042 20.1248 7.0465 21.2934C8.43258 22.462 10.1872 23.1029 12.0001 23.1029C13.813 23.1029 15.5676 22.462 16.9537 21.2934C18.3398 20.1248 19.2681 18.5039 19.5746 16.717C19.8811 14.9302 19.5461 13.0925 18.6286 11.5288C17.7112 9.96511 16.2706 8.77609 14.5612 8.17191Z" fill="#72C183"/>
<path d="M14.5612 8.17191V0.896484H9.43896V8.17191C7.72965 8.77609 6.28897 9.96511 5.37156 11.5288C4.45415 13.0925 4.11908 14.9302 4.42558 16.717C4.73209 18.5039 5.66042 20.1248 7.0465 21.2934C8.43258 22.462 10.1872 23.1029 12.0001 23.1029C13.813 23.1029 15.5676 22.462 16.9537 21.2934C18.3398 20.1248 19.2681 18.5039 19.5746 16.717C19.8811 14.9302 19.5461 13.0925 18.6286 11.5288C17.7112 9.96511 16.2706 8.77609 14.5612 8.17191Z" stroke="#1D3F33" stroke-width="1.71429" stroke-linecap="round" stroke-linejoin="round"/>
<path d="M6.85742 0.896484H17.1431" stroke="#1D3F33" stroke-width="1.71429" stroke-linecap="round" stroke-linejoin="round"/>
</svg>
