<svg width="24" height="24" viewBox="0 0 24 24" fill="none" xmlns="http://www.w3.org/2000/svg">
<path d="M8.31253 12.8571H5.39995C4.86918 12.8571 4.34564 12.7339 3.87058 12.4972C3.39552 12.2604 2.98191 11.9166 2.66233 11.4928C2.34274 11.0691 2.12592 10.5769 2.02892 10.055C1.93193 9.53318 1.95742 8.99594 2.10338 8.48563L3.57767 3.32906C3.7817 2.61726 4.2119 1.99123 4.80324 1.54558C5.39458 1.09993 6.11492 0.858887 6.85538 0.858887C7.59585 0.858887 8.31618 1.09993 8.90753 1.54558C9.49887 1.99123 9.92906 2.61726 10.1331 3.32906L11.6074 8.48734C11.753 8.99741 11.7783 9.5343 11.6812 10.0558C11.5842 10.5773 11.3674 11.0691 11.0481 11.4927C10.7287 11.9162 10.3155 12.2599 9.84078 12.4966C9.3661 12.7334 8.84297 12.8567 8.31253 12.8571Z" fill="#72C183"/>
<path d="M8.31105 12.8571H5.40191C4.87113 12.8571 4.34759 12.7339 3.87253 12.4972C3.39747 12.2604 2.98386 11.9166 2.66428 11.4928C2.3447 11.0691 2.12787 10.5769 2.03088 10.055C1.93388 9.53318 1.95937 8.99594 2.10534 8.48563L3.57962 3.32906C3.78366 2.61726 4.21385 1.99123 4.80519 1.54558C5.39653 1.09993 6.11687 0.858887 6.85734 0.858887C7.5978 0.858887 8.31814 1.09993 8.90948 1.54558C9.50082 1.99123 9.93102 2.61726 10.135 3.32906L11.6093 8.48734C11.7551 8.99783 11.7803 9.53518 11.6829 10.0571C11.5856 10.5789 11.3684 11.0711 11.0485 11.4947C10.7285 11.9184 10.3146 12.2619 9.83928 12.4983C9.36395 12.7347 8.84021 12.8575 8.30934 12.8571H8.31105Z" stroke="#1D3F33" stroke-width="1.71429" stroke-linecap="round" stroke-linejoin="round"/>
<path d="M6.85693 9.42871V23.143" stroke="#1D3F33" stroke-width="1.71429" stroke-linecap="round" stroke-linejoin="round"/>
<path d="M4.28564 23.1428H9.4285" stroke="#1D3F33" stroke-width="1.71429" stroke-linecap="round" stroke-linejoin="round"/>
<path d="M18.8569 23.1429V0.857178" stroke="#1D3F33" stroke-width="1.71429" stroke-linecap="round" stroke-linejoin="round"/>
<path d="M16.2856 0.857178H21.4285" stroke="#1D3F33" stroke-width="1.71429" stroke-linecap="round" stroke-linejoin="round"/>
<path d="M23.1427 23.143V18.8572C23.1427 17.7206 22.6912 16.6305 21.8875 15.8268C21.0837 15.0231 19.9936 14.5715 18.857 14.5715C17.7204 14.5715 16.6303 15.0231 15.8265 15.8268C15.0228 16.6305 14.5713 17.7206 14.5713 18.8572V23.143" stroke="#1D3F33" stroke-width="1.71429" stroke-linecap="round" stroke-linejoin="round"/>
</svg>
