<svg width="24" height="24" viewBox="0 0 24 24" fill="none" xmlns="http://www.w3.org/2000/svg">
<path fill-rule="evenodd" clip-rule="evenodd" d="M7.71429 2.57153H4.71429C4.25963 2.57153 3.82359 2.75214 3.5021 3.07364C3.18061 3.39513 3 3.83116 3 4.28582V21.4287C3 21.8833 3.18061 22.3194 3.5021 22.6409C3.66129 22.8 3.85027 22.9263 4.05826 23.0125C4.26624 23.0986 4.48916 23.143 4.71429 23.143H19.2857C19.7404 23.143 20.1764 22.9624 20.4979 22.6409C20.8194 22.3194 21 21.8833 21 21.4287V4.28582C21 3.83116 20.8194 3.39513 20.4979 3.07364C20.1764 2.75214 19.7404 2.57153 19.2857 2.57153H16.2857V3.42868C16.2857 3.88333 16.1051 4.31937 15.7836 4.64086C15.4621 4.96235 15.0261 5.14296 14.5714 5.14296H9.42857C9.20345 5.14296 8.98053 5.09862 8.77254 5.01247C8.56456 4.92632 8.37558 4.80005 8.21639 4.64086C8.0572 4.48167 7.93093 4.29269 7.84478 4.0847C7.75863 3.87672 7.71429 3.6538 7.71429 3.42868V2.57153Z" fill="#72C183"/>
<path d="M16.7143 2.57153H19.2857C19.7404 2.57153 20.1764 2.75214 20.4979 3.07364C20.8194 3.39513 21 3.83116 21 4.28582V21.4287C21 21.8833 20.8194 22.3194 20.4979 22.6409C20.1764 22.9624 19.7404 23.143 19.2857 23.143H4.71429C4.25963 23.143 3.82359 22.9624 3.5021 22.6409C3.18061 22.3194 3 21.8833 3 21.4287V4.28582C3 3.83116 3.18061 3.39513 3.5021 3.07364C3.82359 2.75214 4.25963 2.57153 4.71429 2.57153H7.28571" stroke="#1D3F33" stroke-width="1.71429" stroke-linecap="round" stroke-linejoin="round"/>
<path d="M14.5715 0.857178H9.42864C9.20352 0.857178 8.9806 0.901519 8.77261 0.98767C8.56463 1.07382 8.37564 1.20009 8.21646 1.35928C8.05727 1.51847 7.931 1.70745 7.84485 1.91543C7.7587 2.12342 7.71436 2.34634 7.71436 2.57146V3.42861C7.71436 3.65373 7.7587 3.87665 7.84485 4.08463C7.931 4.29262 8.05727 4.4816 8.21646 4.64079C8.37564 4.79998 8.56463 4.92625 8.77261 5.0124C8.9806 5.09855 9.20352 5.14289 9.42864 5.14289H14.5715C14.7966 5.14289 15.0195 5.09855 15.2275 5.0124C15.4355 4.92625 15.6245 4.79998 15.7837 4.64079C15.9429 4.4816 16.0691 4.29262 16.1553 4.08463C16.2414 3.87665 16.2858 3.65373 16.2858 3.42861V2.57146C16.2858 2.11681 16.1052 1.68077 15.7837 1.35928C15.4622 1.03779 15.0262 0.857178 14.5715 0.857178Z" fill="white"/>
<path d="M14.5715 0.857178H9.42864C9.20352 0.857178 8.9806 0.901519 8.77261 0.98767C8.56463 1.07382 8.37564 1.20009 8.21646 1.35928C8.05727 1.51847 7.931 1.70745 7.84485 1.91543C7.7587 2.12342 7.71436 2.34634 7.71436 2.57146V3.42861C7.71436 3.65373 7.7587 3.87665 7.84485 4.08463C7.931 4.29262 8.05727 4.4816 8.21646 4.64079C8.37564 4.79998 8.56463 4.92625 8.77261 5.0124C8.9806 5.09855 9.20352 5.14289 9.42864 5.14289H14.5715C14.7966 5.14289 15.0195 5.09855 15.2275 5.0124C15.4355 4.92625 15.6245 4.79998 15.7837 4.64079C15.9429 4.4816 16.0691 4.29262 16.1553 4.08463C16.2414 3.87665 16.2858 3.65373 16.2858 3.42861V2.57146C16.2858 2.11681 16.1052 1.68077 15.7837 1.35928C15.4622 1.03779 15.0262 0.857178 14.5715 0.857178Z" stroke="#1D3F33" stroke-width="1.71429" stroke-linecap="round" stroke-linejoin="round"/>
<path d="M16.2858 14.5715H7.71436" stroke="#1D3F33" stroke-width="1.71429" stroke-linecap="round" stroke-linejoin="round"/>
</svg>
