<svg width="24" height="24" viewBox="0 0 24 24" fill="none" xmlns="http://www.w3.org/2000/svg">
<g clip-path="url(#clip0_686_430)">
<path d="M3.42836 17.1428L0.856934 23.1428H23.1426L20.5712 17.1428H3.42836Z" fill="#72C183"/>
<path d="M19.7142 8.57146C19.7142 13.7143 11.9999 19.7143 11.9999 19.7143C11.9999 19.7143 4.28564 13.7143 4.28564 8.57146C4.28564 4.36975 7.79822 0.857178 11.9999 0.857178C16.2016 0.857178 19.7142 4.36975 19.7142 8.57146Z" fill="#72C183"/>
<path d="M11.9997 11.1429C12.6816 11.1429 13.3357 10.8719 13.8179 10.3897C14.3002 9.90747 14.5711 9.25341 14.5711 8.57143C14.5711 7.88944 14.3002 7.23539 13.8179 6.75315C13.3357 6.27092 12.6816 6 11.9997 6C11.3177 6 10.6636 6.27092 10.1814 6.75315C9.69914 7.23539 9.42822 7.88944 9.42822 8.57143C9.42822 9.25341 9.69914 9.90747 10.1814 10.3897C10.6636 10.8719 11.3177 11.1429 11.9997 11.1429Z" fill="white"/>
<path d="M19.7142 8.57146C19.7142 13.7143 11.9999 19.7143 11.9999 19.7143C11.9999 19.7143 4.28564 13.7143 4.28564 8.57146C4.28564 4.36975 7.79822 0.857178 11.9999 0.857178C16.2016 0.857178 19.7142 4.36975 19.7142 8.57146Z" stroke="#1D3F33" stroke-width="1.71429" stroke-linecap="round" stroke-linejoin="round"/>
<path d="M11.9997 11.1429C12.6816 11.1429 13.3357 10.8719 13.8179 10.3897C14.3002 9.90747 14.5711 9.25341 14.5711 8.57143C14.5711 7.88944 14.3002 7.23539 13.8179 6.75315C13.3357 6.27092 12.6816 6 11.9997 6C11.3177 6 10.6636 6.27092 10.1814 6.75315C9.69914 7.23539 9.42822 7.88944 9.42822 8.57143C9.42822 9.25341 9.69914 9.90747 10.1814 10.3897C10.6636 10.8719 11.3177 11.1429 11.9997 11.1429Z" stroke="#1D3F33" stroke-width="1.71429" stroke-linecap="round" stroke-linejoin="round"/>
<path d="M18.9889 17.1428H20.5712L23.1426 23.1428H0.856934L3.42836 17.1428H5.01065" stroke="#1D3F33" stroke-width="1.71429" stroke-linecap="round" stroke-linejoin="round"/>
</g>
<defs>
<clipPath id="clip0_686_430">
<rect width="24" height="24" fill="white"/>
</clipPath>
</defs>
</svg>
