<svg width="24" height="24" viewBox="0 0 24 24" fill="none" xmlns="http://www.w3.org/2000/svg">
<path d="M8.57136 11.143C9.708 11.143 10.7981 10.6914 11.6018 9.88771C12.4055 9.08398 12.8571 7.99389 12.8571 6.85725C12.8571 5.72061 12.4055 4.63052 11.6018 3.82679C10.7981 3.02306 9.708 2.57153 8.57136 2.57153C7.43472 2.57153 6.34463 3.02306 5.5409 3.82679C4.73717 4.63052 4.28564 5.72061 4.28564 6.85725C4.28564 7.99389 4.73717 9.08398 5.5409 9.88771C6.34463 10.6914 7.43472 11.143 8.57136 11.143Z" fill="#72C183"/>
<path d="M0.856934 23.1431H16.2855V22.2139C16.2745 21.1775 16.0553 20.1539 15.6408 19.204C15.2263 18.254 14.625 17.3971 13.8728 16.6842C13.1205 15.9712 12.2325 15.4168 11.2617 15.0539C10.2909 14.691 9.25698 14.527 8.2215 14.5716C6.25056 14.6651 4.38996 15.5087 3.02078 16.9295C1.6516 18.3503 0.877467 20.2409 0.856934 22.2139V23.1431Z" fill="#72C183"/>
<path fill-rule="evenodd" clip-rule="evenodd" d="M12 9.42868C12.5383 8.71211 12.8571 7.82239 12.8571 6.85725C12.8571 5.89211 12.5383 5.00239 12 4.28582C12.5397 3.56622 13.2921 3.03468 14.1507 2.76648C15.0093 2.49827 15.9305 2.50702 16.7838 2.79146C17.6372 3.07591 18.3794 3.62164 18.9053 4.35135C19.4313 5.08106 19.7143 5.95775 19.7143 6.85725C19.7143 7.75674 19.4313 8.63344 18.9053 9.36315C18.3794 10.0929 17.6372 10.6386 16.7838 10.923C15.9305 11.2075 15.0093 11.2162 14.1507 10.948C13.2921 10.6798 12.5397 10.1483 12 9.42868ZM16.2857 23.143H23.1429V22.2138C23.1319 21.1774 22.9126 20.1538 22.4981 19.2039C22.0836 18.2539 21.4824 17.397 20.7301 16.6841C19.9778 15.9711 19.0899 15.4167 18.119 15.0538C17.1482 14.6909 16.1143 14.5269 15.0789 14.5715C14.0082 14.6221 12.9597 14.8947 12 15.3721C13.2755 16.0064 14.3508 16.9809 15.1071 18.188C15.8634 19.395 16.2713 20.7877 16.2857 22.2121V23.143Z" fill="white"/>
<path d="M8.57136 11.143C9.708 11.143 10.7981 10.6914 11.6018 9.88771C12.4055 9.08398 12.8571 7.99389 12.8571 6.85725C12.8571 5.72061 12.4055 4.63052 11.6018 3.82679C10.7981 3.02306 9.708 2.57153 8.57136 2.57153C7.43472 2.57153 6.34463 3.02306 5.5409 3.82679C4.73717 4.63052 4.28564 5.72061 4.28564 6.85725C4.28564 7.99389 4.73717 9.08398 5.5409 9.88771C6.34463 10.6914 7.43472 11.143 8.57136 11.143Z" stroke="#1D3F33" stroke-width="1.71429" stroke-linecap="round" stroke-linejoin="round"/>
<path d="M0.856934 23.1431H16.2855V22.2139C16.2745 21.1775 16.0553 20.1539 15.6408 19.204C15.2263 18.254 14.625 17.3971 13.8728 16.6842C13.1205 15.9712 12.2325 15.4168 11.2617 15.0539C10.2909 14.691 9.25698 14.527 8.2215 14.5716C6.25056 14.6651 4.38996 15.5087 3.02078 16.9295C1.6516 18.3503 0.877467 20.2409 0.856934 22.2139V23.1431Z" stroke="#1D3F33" stroke-width="1.71429" stroke-linecap="round" stroke-linejoin="round"/>
<path d="M15.4282 11.143C16.5649 11.143 17.655 10.6914 18.4587 9.88771C19.2624 9.08398 19.7139 7.99389 19.7139 6.85725C19.7139 5.72061 19.2624 4.63052 18.4587 3.82679C17.655 3.02306 16.5649 2.57153 15.4282 2.57153" stroke="#1D3F33" stroke-width="1.71429" stroke-linecap="round" stroke-linejoin="round"/>
<path d="M19.714 23.1429H23.1426V22.2137C23.1247 20.4779 22.5231 18.7985 21.4347 17.4461C20.3463 16.0937 18.8345 15.147 17.1426 14.7583" stroke="#1D3F33" stroke-width="1.71429" stroke-linecap="round" stroke-linejoin="round"/>
</svg>
