<svg width="24" height="24" viewBox="0 0 24 24" fill="none" xmlns="http://www.w3.org/2000/svg">
<g clip-path="url(#clip0_686_541)">
<path d="M3.42822 17.1429V13.7143C3.42822 13.2596 3.60883 12.8236 3.93033 12.5021C4.25182 12.1806 4.68785 12 5.14251 12H18.8568C19.0819 12 19.3048 12.0443 19.5128 12.1305C19.7208 12.2166 19.9098 12.3429 20.069 12.5021C20.2282 12.6613 20.3544 12.8503 20.4406 13.0583C20.5267 13.2662 20.5711 13.4892 20.5711 13.7143V17.1429" stroke="#1D3F33" stroke-width="1.71429" stroke-linecap="round" stroke-linejoin="round"/>
<path d="M12 6.85718V17.1429" stroke="#1D3F33" stroke-width="1.71429" stroke-linecap="round" stroke-linejoin="round"/>
<path d="M9.42822 3.42864V5.14293C9.42822 5.59758 9.60883 6.03362 9.93033 6.35511C10.2518 6.6766 10.6879 6.85721 11.1425 6.85721H12.8568C13.3115 6.85721 13.7475 6.6766 14.069 6.35511C14.3905 6.03362 14.5711 5.59758 14.5711 5.14293V3.42864C14.5711 2.97398 14.3905 2.53795 14.069 2.21646C13.7475 1.89497 13.3115 1.71436 12.8568 1.71436H11.1425C10.6879 1.71436 10.2518 1.89497 9.93033 2.21646C9.60883 2.53795 9.42822 2.97398 9.42822 3.42864Z" fill="#72C183"/>
<path d="M9.42822 18.8571V20.5714C9.42822 21.0261 9.60883 21.4621 9.93033 21.7836C10.2518 22.1051 10.6879 22.2857 11.1425 22.2857H12.8568C13.3115 22.2857 13.7475 22.1051 14.069 21.7836C14.3905 21.4621 14.5711 21.0261 14.5711 20.5714V18.8571C14.5711 18.632 14.5267 18.4091 14.4406 18.2011C14.3544 17.9931 14.2282 17.8041 14.069 17.6449C13.9098 17.4857 13.7208 17.3595 13.5128 17.2733C13.3048 17.1872 13.0819 17.1428 12.8568 17.1428H11.1425C10.9174 17.1428 10.6945 17.1872 10.4865 17.2733C10.2785 17.3595 10.0895 17.4857 9.93033 17.6449C9.77114 17.8041 9.64487 17.9931 9.55871 18.2011C9.47256 18.4091 9.42822 18.632 9.42822 18.8571Z" fill="#72C183"/>
<path d="M0.856934 18.8571V20.5714C0.856934 21.0261 1.03755 21.4621 1.35904 21.7836C1.68053 22.1051 2.11656 22.2857 2.57122 22.2857H4.2855C4.74016 22.2857 5.1762 22.1051 5.49769 21.7836C5.81918 21.4621 5.99979 21.0261 5.99979 20.5714V18.8571C5.99979 18.632 5.95545 18.4091 5.8693 18.2011C5.78315 17.9931 5.65687 17.8041 5.49769 17.6449C5.3385 17.4857 5.14952 17.3595 4.94153 17.2733C4.73355 17.1872 4.51063 17.1428 4.2855 17.1428H2.57122C2.3461 17.1428 2.12318 17.1872 1.91519 17.2733C1.7072 17.3595 1.51822 17.4857 1.35904 17.6449C1.19985 17.8041 1.07358 17.9931 0.987426 18.2011C0.901275 18.4091 0.856934 18.632 0.856934 18.8571Z" fill="#72C183"/>
<path d="M18 18.8571V20.5714C18 20.7965 18.0443 21.0194 18.1305 21.2274C18.2166 21.4354 18.3429 21.6244 18.5021 21.7836C18.6613 21.9428 18.8503 22.069 19.0583 22.1552C19.2662 22.2413 19.4892 22.2857 19.7143 22.2857H21.4286C21.8832 22.2857 22.3193 22.1051 22.6408 21.7836C22.9622 21.4621 23.1429 21.0261 23.1429 20.5714V18.8571C23.1429 18.632 23.0985 18.4091 23.0124 18.2011C22.9262 17.9931 22.7999 17.8041 22.6408 17.6449C22.4816 17.4857 22.2926 17.3595 22.0846 17.2733C21.8766 17.1872 21.6537 17.1428 21.4286 17.1428H19.7143C19.4892 17.1428 19.2662 17.1872 19.0583 17.2733C18.8503 17.3595 18.6613 17.4857 18.5021 17.6449C18.3429 17.8041 18.2166 17.9931 18.1305 18.2011C18.0443 18.4091 18 18.632 18 18.8571Z" fill="#72C183"/>
<path d="M9.42822 3.42864V5.14293C9.42822 5.59758 9.60883 6.03362 9.93033 6.35511C10.2518 6.6766 10.6879 6.85721 11.1425 6.85721H12.8568C13.3115 6.85721 13.7475 6.6766 14.069 6.35511C14.3905 6.03362 14.5711 5.59758 14.5711 5.14293V3.42864C14.5711 2.97398 14.3905 2.53795 14.069 2.21646C13.7475 1.89497 13.3115 1.71436 12.8568 1.71436H11.1425C10.6879 1.71436 10.2518 1.89497 9.93033 2.21646C9.60883 2.53795 9.42822 2.97398 9.42822 3.42864Z" stroke="#1D3F33" stroke-width="1.71429" stroke-linecap="round" stroke-linejoin="round"/>
<path d="M9.42822 18.8571V20.5714C9.42822 21.0261 9.60883 21.4621 9.93033 21.7836C10.2518 22.1051 10.6879 22.2857 11.1425 22.2857H12.8568C13.3115 22.2857 13.7475 22.1051 14.069 21.7836C14.3905 21.4621 14.5711 21.0261 14.5711 20.5714V18.8571C14.5711 18.632 14.5267 18.4091 14.4406 18.2011C14.3544 17.9931 14.2282 17.8041 14.069 17.6449C13.9098 17.4857 13.7208 17.3595 13.5128 17.2733C13.3048 17.1872 13.0819 17.1428 12.8568 17.1428H11.1425C10.9174 17.1428 10.6945 17.1872 10.4865 17.2733C10.2785 17.3595 10.0895 17.4857 9.93033 17.6449C9.77114 17.8041 9.64487 17.9931 9.55871 18.2011C9.47256 18.4091 9.42822 18.632 9.42822 18.8571Z" stroke="#1D3F33" stroke-width="1.71429" stroke-linecap="round" stroke-linejoin="round"/>
<path d="M0.856934 18.8571V20.5714C0.856934 21.0261 1.03755 21.4621 1.35904 21.7836C1.68053 22.1051 2.11656 22.2857 2.57122 22.2857H4.2855C4.74016 22.2857 5.1762 22.1051 5.49769 21.7836C5.81918 21.4621 5.99979 21.0261 5.99979 20.5714V18.8571C5.99979 18.632 5.95545 18.4091 5.8693 18.2011C5.78315 17.9931 5.65687 17.8041 5.49769 17.6449C5.3385 17.4857 5.14952 17.3595 4.94153 17.2733C4.73355 17.1872 4.51063 17.1428 4.2855 17.1428H2.57122C2.3461 17.1428 2.12318 17.1872 1.91519 17.2733C1.7072 17.3595 1.51822 17.4857 1.35904 17.6449C1.19985 17.8041 1.07358 17.9931 0.987426 18.2011C0.901275 18.4091 0.856934 18.632 0.856934 18.8571Z" stroke="#1D3F33" stroke-width="1.71429" stroke-linecap="round" stroke-linejoin="round"/>
<path d="M18 18.8571V20.5714C18 20.7965 18.0443 21.0194 18.1305 21.2274C18.2166 21.4354 18.3429 21.6244 18.5021 21.7836C18.6613 21.9428 18.8503 22.069 19.0583 22.1552C19.2662 22.2413 19.4892 22.2857 19.7143 22.2857H21.4286C21.8832 22.2857 22.3193 22.1051 22.6408 21.7836C22.9622 21.4621 23.1429 21.0261 23.1429 20.5714V18.8571C23.1429 18.632 23.0985 18.4091 23.0124 18.2011C22.9262 17.9931 22.7999 17.8041 22.6408 17.6449C22.4816 17.4857 22.2926 17.3595 22.0846 17.2733C21.8766 17.1872 21.6537 17.1428 21.4286 17.1428H19.7143C19.4892 17.1428 19.2662 17.1872 19.0583 17.2733C18.8503 17.3595 18.6613 17.4857 18.5021 17.6449C18.3429 17.8041 18.2166 17.9931 18.1305 18.2011C18.0443 18.4091 18 18.632 18 18.8571Z" stroke="#1D3F33" stroke-width="1.71429" stroke-linecap="round" stroke-linejoin="round"/>
</g>
<defs>
<clipPath id="clip0_686_541">
<rect width="24" height="24" fill="white"/>
</clipPath>
</defs>
</svg>
