<svg width="24" height="24" viewBox="0 0 24 24" fill="none" xmlns="http://www.w3.org/2000/svg">
<g clip-path="url(#clip0_686_472)">
<path d="M22.0193 1H11L13 15H22.0193C22.5611 15 23 14.3723 23 13.5977V2.40396C23.0002 2.21967 22.9749 2.03714 22.9257 1.86682C22.8765 1.69649 22.8043 1.5417 22.7132 1.41131C22.6221 1.28092 22.5139 1.17748 22.3949 1.1069C22.2758 1.03633 22.1482 1 22.0193 1Z" fill="white"/>
<path d="M10.8857 0.857178H21.6892C22.4932 0.857178 23.1446 1.50861 23.1446 2.31261V13.932C23.1446 14.7377 22.4932 15.3892 21.6892 15.3892H12.8572" stroke="#1D3F33" stroke-width="1.71429" stroke-linecap="round" stroke-linejoin="round"/>
<path d="M5.39832 6.85889C5.7924 6.85889 6.18262 6.78127 6.5467 6.63047C6.91078 6.47966 7.24159 6.25862 7.52024 5.97996C7.7989 5.70131 8.01994 5.37049 8.17075 5.00641C8.32156 4.64233 8.39918 4.25211 8.39918 3.85803C8.39918 3.46396 8.32156 3.07374 8.17075 2.70966C8.01994 2.34558 7.7989 2.01476 7.52024 1.73611C7.24159 1.45745 6.91078 1.23641 6.5467 1.0856C6.18262 0.934797 5.7924 0.857178 5.39832 0.857178C4.60244 0.857178 3.83916 1.17334 3.27639 1.73611C2.71362 2.29888 2.39746 3.06216 2.39746 3.85803C2.39746 4.65391 2.71362 5.41719 3.27639 5.97996C3.83916 6.54273 4.60244 6.85889 5.39832 6.85889Z" fill="#72C183"/>
<path d="M15.4284 9.47493C15.4284 8.50293 14.6398 7.71436 13.6678 7.71436H5.39808C4.19369 7.71436 3.03863 8.1928 2.187 9.04443C1.33537 9.89605 0.856934 11.0511 0.856934 12.2555V16.2858H2.80265L3.45236 23.1429H7.34379L8.83865 11.2372H13.6678C14.6398 11.2372 15.4284 10.4486 15.4284 9.47493Z" fill="#72C183"/>
<path d="M5.39832 6.85889C5.7924 6.85889 6.18262 6.78127 6.5467 6.63047C6.91078 6.47966 7.24159 6.25862 7.52024 5.97996C7.7989 5.70131 8.01994 5.37049 8.17075 5.00641C8.32156 4.64233 8.39918 4.25211 8.39918 3.85803C8.39918 3.46396 8.32156 3.07374 8.17075 2.70966C8.01994 2.34558 7.7989 2.01476 7.52024 1.73611C7.24159 1.45745 6.91078 1.23641 6.5467 1.0856C6.18262 0.934797 5.7924 0.857178 5.39832 0.857178C4.60244 0.857178 3.83916 1.17334 3.27639 1.73611C2.71362 2.29888 2.39746 3.06216 2.39746 3.85803C2.39746 4.65391 2.71362 5.41719 3.27639 5.97996C3.83916 6.54273 4.60244 6.85889 5.39832 6.85889Z" stroke="#1D3F33" stroke-width="1.71429" stroke-linecap="round" stroke-linejoin="round"/>
<path d="M15.4284 9.47493C15.4284 8.50293 14.6398 7.71436 13.6678 7.71436H5.39808C4.19369 7.71436 3.03863 8.1928 2.187 9.04443C1.33537 9.89605 0.856934 11.0511 0.856934 12.2555V16.2858H2.80265L3.45236 23.1429H7.34379L8.83865 11.2372H13.6678C14.6398 11.2372 15.4284 10.4486 15.4284 9.47493Z" stroke="#1D3F33" stroke-width="1.71429" stroke-linecap="round" stroke-linejoin="round"/>
</g>
<defs>
<clipPath id="clip0_686_472">
<rect width="24" height="24" fill="white"/>
</clipPath>
</defs>
</svg>
