<svg width="24" height="24" viewBox="0 0 24 24" fill="none" xmlns="http://www.w3.org/2000/svg">
<path d="M18.8569 11.1428C17.9298 11.144 17.0279 11.4447 16.2855 11.9999C16.2855 10.4742 15.8331 8.98271 14.9854 7.71411C14.1378 6.4455 12.933 5.45674 11.5234 4.87286C10.1138 4.28899 8.56266 4.13622 7.06624 4.43388C5.56982 4.73153 4.19526 5.46625 3.1164 6.54511C2.03754 7.62397 1.30282 8.99853 1.00516 10.495C0.707507 11.9914 0.860276 13.5425 1.44415 14.9521C2.02803 16.3617 3.01679 17.5665 4.2854 18.4141C5.554 19.2618 7.04548 19.7142 8.57122 19.7142H18.8569C19.9936 19.7142 21.0837 19.2627 21.8874 18.459C22.6911 17.6552 23.1427 16.5651 23.1427 15.4285C23.1427 14.2919 22.6911 13.2018 21.8874 12.398C21.0837 11.5943 19.9936 11.1428 18.8569 11.1428Z" fill="#72C183"/>
<path d="M18.8569 11.1428C17.9298 11.144 17.0279 11.4447 16.2855 11.9999C16.2855 10.4742 15.8331 8.98271 14.9854 7.71411C14.1378 6.4455 12.933 5.45674 11.5234 4.87286C10.1138 4.28899 8.56267 4.13622 7.06624 4.43388C5.56982 4.73153 4.19526 5.46625 3.1164 6.54511C2.03754 7.62397 1.30282 8.99853 1.00516 10.495C0.707507 11.9914 0.860276 13.5425 1.44415 14.9521C2.02803 16.3617 3.01679 17.5665 4.2854 18.4141C5.554 19.2618 7.04548 19.7142 8.57122 19.7142H18.8569C19.9936 19.7142 21.0837 19.2627 21.8874 18.459C22.6911 17.6552 23.1427 16.5651 23.1427 15.4285C23.1427 14.2919 22.6911 13.2018 21.8874 12.398C21.0837 11.5943 19.9936 11.1428 18.8569 11.1428Z" stroke="#1D3F33" stroke-width="1.71429" stroke-linecap="round" stroke-linejoin="round"/>
</svg>
