<svg width="24" height="24" viewBox="0 0 24 24" fill="none" xmlns="http://www.w3.org/2000/svg">
<g clip-path="url(#clip0_686_514)">
<path d="M11.9999 15.4252C12.4496 15.4252 12.895 15.3366 13.3106 15.1645C13.7262 14.9924 14.1037 14.7401 14.4218 14.422C14.7398 14.104 14.9921 13.7264 15.1643 13.3108C15.3364 12.8953 15.425 12.4499 15.425 12.0001C15.425 11.5503 15.3364 11.1049 15.1643 10.6893C14.9921 10.2738 14.7398 9.89621 14.4218 9.57815C14.1037 9.2601 13.7262 9.0078 13.3106 8.83568C12.895 8.66355 12.4496 8.57495 11.9999 8.57495C11.0914 8.57495 10.2202 8.93581 9.57791 9.57815C8.93557 10.2205 8.57471 11.0917 8.57471 12.0001C8.57471 12.9085 8.93557 13.7797 9.57791 14.422C10.2202 15.0644 11.0914 15.4252 11.9999 15.4252Z" fill="#72C183"/>
<path d="M11.9999 15.4252C12.4496 15.4252 12.895 15.3366 13.3106 15.1645C13.7262 14.9924 14.1037 14.7401 14.4218 14.422C14.7398 14.104 14.9921 13.7264 15.1643 13.3108C15.3364 12.8953 15.425 12.4499 15.425 12.0001C15.425 11.5503 15.3364 11.1049 15.1643 10.6893C14.9921 10.2738 14.7398 9.89621 14.4218 9.57815C14.1037 9.2601 13.7262 9.0078 13.3106 8.83568C12.895 8.66355 12.4496 8.57495 11.9999 8.57495C11.0914 8.57495 10.2202 8.93581 9.57791 9.57815C8.93557 10.2205 8.57471 11.0917 8.57471 12.0001C8.57471 12.9085 8.93557 13.7797 9.57791 14.422C10.2202 15.0644 11.0914 15.4252 11.9999 15.4252Z" stroke="#1D3F33" stroke-width="1.71429" stroke-linecap="round" stroke-linejoin="round"/>
<path d="M12 0.857178V2.57146" stroke="#1D3F33" stroke-width="1.71429" stroke-linecap="round" stroke-linejoin="round"/>
<path d="M12 21.4287V23.143" stroke="#1D3F33" stroke-width="1.71429" stroke-linecap="round" stroke-linejoin="round"/>
<path d="M23.1425 12H21.4282" stroke="#1D3F33" stroke-width="1.71429" stroke-linecap="round" stroke-linejoin="round"/>
<path d="M2.57122 12H0.856934" stroke="#1D3F33" stroke-width="1.71429" stroke-linecap="round" stroke-linejoin="round"/>
<path d="M19.8856 4.11426L18.6685 5.3314" stroke="#1D3F33" stroke-width="1.71429" stroke-linecap="round" stroke-linejoin="round"/>
<path d="M5.3314 18.6687L4.11426 19.8858" stroke="#1D3F33" stroke-width="1.71429" stroke-linecap="round" stroke-linejoin="round"/>
<path d="M19.8856 19.8858L18.6685 18.6687" stroke="#1D3F33" stroke-width="1.71429" stroke-linecap="round" stroke-linejoin="round"/>
<path d="M5.3314 5.3314L4.11426 4.11426" stroke="#1D3F33" stroke-width="1.71429" stroke-linecap="round" stroke-linejoin="round"/>
</g>
<defs>
<clipPath id="clip0_686_514">
<rect width="24" height="24" fill="white"/>
</clipPath>
</defs>
</svg>
