<svg width="24" height="24" viewBox="0 0 24 24" fill="none" xmlns="http://www.w3.org/2000/svg">
<path d="M19.7141 0.857178H4.28557C3.83092 0.857178 3.39488 1.03779 3.07339 1.35928C2.7519 1.68077 2.57129 2.11681 2.57129 2.57146V12H21.4284V2.57146C21.4284 2.11681 21.2478 1.68077 20.9263 1.35928C20.6048 1.03779 20.1688 0.857178 19.7141 0.857178Z" fill="white"/>
<path d="M19.7141 20.5714C19.9393 20.5714 20.1622 20.5271 20.3702 20.4409C20.5782 20.3548 20.7671 20.2285 20.9263 20.0693C21.0855 19.9101 21.2118 19.7212 21.2979 19.5132C21.3841 19.3052 21.4284 19.0823 21.4284 18.8571V12H2.57129V18.8571C2.57129 19.3118 2.7519 19.7478 3.07339 20.0693C3.39488 20.3908 3.83092 20.5714 4.28557 20.5714H19.7141Z" fill="#72C183"/>
<path d="M19.7141 0.857178H4.28557C3.83092 0.857178 3.39488 1.03779 3.07339 1.35928C2.7519 1.68077 2.57129 2.11681 2.57129 2.57146V18.8572C2.57129 19.3118 2.7519 19.7479 3.07339 20.0694C3.39488 20.3909 3.83092 20.5715 4.28557 20.5715H19.7141C20.1688 20.5715 20.6048 20.3909 20.9263 20.0694C21.2478 19.7479 21.4284 19.3118 21.4284 18.8572V2.57146C21.4284 2.11681 21.2478 1.68077 20.9263 1.35928C20.6048 1.03779 20.1688 0.857178 19.7141 0.857178Z" stroke="#1D3F33" stroke-width="1.71429" stroke-linecap="round" stroke-linejoin="round"/>
<path d="M6 20.5715V23.143" stroke="#1D3F33" stroke-width="1.71429" stroke-linecap="round" stroke-linejoin="round"/>
<path d="M18 20.5715V23.143" stroke="#1D3F33" stroke-width="1.71429" stroke-linecap="round" stroke-linejoin="round"/>
<path d="M2.57129 12H21.4284" stroke="#1D3F33" stroke-width="1.71429" stroke-linecap="round" stroke-linejoin="round"/>
<path d="M6.85679 16.7143C6.74313 16.7143 6.63412 16.6692 6.55375 16.5888C6.47338 16.5084 6.42822 16.3994 6.42822 16.2858C6.42822 16.1721 6.47338 16.0631 6.55375 15.9827C6.63412 15.9023 6.74313 15.8572 6.85679 15.8572" stroke="#1D3F33" stroke-width="1.71429" stroke-linecap="round" stroke-linejoin="round"/>
<path d="M6.85693 16.7143C6.9706 16.7143 7.07961 16.6692 7.15998 16.5888C7.24035 16.5084 7.2855 16.3994 7.2855 16.2858C7.2855 16.1721 7.24035 16.0631 7.15998 15.9827C7.07961 15.9023 6.9706 15.8572 6.85693 15.8572" stroke="#1D3F33" stroke-width="1.71429" stroke-linecap="round" stroke-linejoin="round"/>
<path d="M17.1429 16.7143C17.0293 16.7143 16.9203 16.6692 16.8399 16.5888C16.7595 16.5084 16.7144 16.3994 16.7144 16.2858C16.7144 16.1721 16.7595 16.0631 16.8399 15.9827C16.9203 15.9023 17.0293 15.8572 17.1429 15.8572" stroke="#1D3F33" stroke-width="1.71429" stroke-linecap="round" stroke-linejoin="round"/>
<path d="M17.1431 16.7143C17.2567 16.7143 17.3657 16.6692 17.4461 16.5888C17.5265 16.5084 17.5716 16.3994 17.5716 16.2858C17.5716 16.1721 17.5265 16.0631 17.4461 15.9827C17.3657 15.9023 17.2567 15.8572 17.1431 15.8572" stroke="#1D3F33" stroke-width="1.71429" stroke-linecap="round" stroke-linejoin="round"/>
</svg>
