<svg width="24" height="24" viewBox="0 0 24 24" fill="none" xmlns="http://www.w3.org/2000/svg">
<g clip-path="url(#clip0_686_457)">
<path d="M0.856934 10.2857C0.856934 12.7864 1.8503 15.1846 3.6185 16.9528C5.3867 18.721 7.78489 19.7143 10.2855 19.7143C12.7861 19.7143 15.1843 18.721 16.9525 16.9528C18.7207 15.1846 19.7141 12.7864 19.7141 10.2857C19.7141 7.78514 18.7207 5.38694 16.9525 3.61874C15.1843 1.85054 12.7861 0.857178 10.2855 0.857178C7.78489 0.857178 5.3867 1.85054 3.6185 3.61874C1.8503 5.38694 0.856934 7.78514 0.856934 10.2857Z" fill="#72C183"/>
<path d="M0.856934 10.2857C0.856934 12.7864 1.8503 15.1846 3.6185 16.9528C5.3867 18.721 7.78489 19.7143 10.2855 19.7143C12.7861 19.7143 15.1843 18.721 16.9525 16.9528C18.7207 15.1846 19.7141 12.7864 19.7141 10.2857C19.7141 7.78514 18.7207 5.38694 16.9525 3.61874C15.1843 1.85054 12.7861 0.857178 10.2855 0.857178C7.78489 0.857178 5.3867 1.85054 3.6185 3.61874C1.8503 5.38694 0.856934 7.78514 0.856934 10.2857Z" stroke="#1D3F33" stroke-width="1.71429" stroke-linecap="round" stroke-linejoin="round"/>
<path d="M17.1343 17.1343L22.2857 22.2857" stroke="#1D3F33" stroke-width="1.71429" stroke-linecap="round" stroke-linejoin="round"/>
<path d="M4.31299 10.5532H6.93585L8.70499 7.17944L11.3844 13.3937L13.6867 10.5532H16.2581" stroke="#1D3F33" stroke-width="1.71429" stroke-linecap="round" stroke-linejoin="round"/>
</g>
<defs>
<clipPath id="clip0_686_457">
<rect width="24" height="24" fill="white"/>
</clipPath>
</defs>
</svg>
