<svg width="24" height="24" viewBox="0 0 24 24" fill="none" xmlns="http://www.w3.org/2000/svg">
<g clip-path="url(#clip0_686_442)">
<path d="M12.8569 0.857178C13.6526 0.857178 14.4156 1.17325 14.9783 1.73586C15.5409 2.29847 15.8569 3.06153 15.8569 3.85718C15.8569 4.65283 15.5409 5.41589 14.9783 5.9785C14.4156 6.54111 13.6526 6.85718 12.8569 6.85718H0.856934" stroke="#1D3F33" stroke-width="1.71429" stroke-linecap="round" stroke-linejoin="round"/>
<path d="M20.1425 18C20.9382 18 21.7012 17.6839 22.2638 17.1213C22.8264 16.5587 23.1425 15.7956 23.1425 15C23.1425 14.2044 22.8264 13.4413 22.2638 12.8787C21.7012 12.3161 20.9382 12 20.1425 12H3.42822" stroke="#1D3F33" stroke-width="1.71429" stroke-linecap="round" stroke-linejoin="round"/>
<path d="M12.4284 23.1428C13.2241 23.1428 13.9871 22.8268 14.5498 22.2641C15.1124 21.7015 15.4284 20.9385 15.4284 20.1428C15.4284 19.3472 15.1124 18.5841 14.5498 18.0215C13.9871 17.4589 13.2241 17.1428 12.4284 17.1428H2.57129" stroke="#1D3F33" stroke-width="1.71429" stroke-linecap="round" stroke-linejoin="round"/>
</g>
<defs>
<clipPath id="clip0_686_442">
<rect width="24" height="24" fill="white"/>
</clipPath>
</defs>
</svg>
