<svg width="24" height="24" viewBox="0 0 24 24" fill="none" xmlns="http://www.w3.org/2000/svg">
<g clip-path="url(#clip0_686_438)">
<path d="M22.9886 6.16452C22.9555 5.98487 22.8849 5.8142 22.7816 5.66358C22.6782 5.51295 22.5443 5.38575 22.3886 5.29023L18.96 8.7188C18.8001 8.88472 18.6084 9.01669 18.3963 9.10683C18.1842 9.19696 17.9562 9.24342 17.7257 9.24342C17.4953 9.24342 17.2672 9.19696 17.0552 9.10683C16.8431 9.01669 16.6514 8.88472 16.4915 8.7188L15.1886 7.55309C14.8745 7.23264 14.6986 6.80181 14.6986 6.35309C14.6986 5.90437 14.8745 5.47354 15.1886 5.15309L18.6172 1.72452C18.5424 1.54887 18.4299 1.3918 18.2877 1.26441C18.1456 1.13703 17.9771 1.04246 17.7943 0.987377C16.617 0.751875 15.3974 0.846345 14.2704 1.26035C13.1433 1.67436 12.1527 2.3918 11.4077 3.33344C10.6628 4.27508 10.1926 5.40428 10.049 6.59635C9.90549 7.78841 10.0942 8.99696 10.5943 10.0885L1.39717 19.2891C1.23597 19.4503 1.10854 19.642 1.02233 19.853C0.93612 20.0641 0.892867 20.2902 0.895102 20.5181C0.897337 20.7461 0.945014 20.9713 1.03534 21.1806C1.12567 21.3899 1.25684 21.5791 1.42117 21.7371L2.38117 22.6594C2.70362 22.9697 3.13461 23.1416 3.58209 23.1383C4.02957 23.1351 4.45806 22.9571 4.77603 22.6422L14.0812 13.4365C15.1708 13.8867 16.3619 14.0335 17.5281 13.8615C18.6944 13.6895 19.7924 13.205 20.7056 12.4594C21.6188 11.7139 22.3132 10.7351 22.7152 9.6268C23.1171 8.51853 23.2116 7.32214 22.9886 6.16452Z" fill="#72C183"/>
<path d="M22.9885 6.16452C22.9553 5.98491 22.8847 5.81427 22.7813 5.66367C22.678 5.51306 22.5441 5.38584 22.3885 5.29023L18.9599 8.7188C18.8 8.88472 18.6083 9.01669 18.3962 9.10683C18.1841 9.19696 17.9561 9.24342 17.7256 9.24342C17.4952 9.24342 17.2671 9.19696 17.0551 9.10683C16.843 9.01669 16.6513 8.88472 16.4914 8.7188L15.1885 7.55309C14.8744 7.23264 14.6985 6.80181 14.6985 6.35309C14.6985 5.90437 14.8744 5.47354 15.1885 5.15309L18.6171 1.72452C18.5421 1.549 18.4296 1.39203 18.2874 1.26468C18.1452 1.13732 17.9769 1.04267 17.7942 0.987377C16.6169 0.751875 15.3973 0.846345 14.2703 1.26035C13.1432 1.67436 12.1526 2.3918 11.4076 3.33344C10.6627 4.27508 10.1925 5.40428 10.0489 6.59635C9.90539 7.78841 10.0941 8.99696 10.5942 10.0885L1.39707 19.2857C1.23561 19.4469 1.10795 19.6387 1.02159 19.8499C0.935224 20.0611 0.89189 20.2874 0.894125 20.5156C0.896361 20.7437 0.944121 20.9691 1.03461 21.1786C1.12509 21.3881 1.25648 21.5774 1.42107 21.7354L2.38107 22.6577C2.70352 22.9679 3.13451 23.1398 3.58199 23.1366C4.02947 23.1334 4.45795 22.9554 4.77593 22.6405L14.0811 13.4348C15.1706 13.8849 16.3617 14.0318 17.528 13.8598C18.6943 13.6877 19.7923 13.2033 20.7055 12.4577C21.6187 11.7122 22.3131 10.7334 22.7151 9.62509C23.117 8.51682 23.2115 7.32043 22.9885 6.16281V6.16452Z" stroke="#1D3F33" stroke-width="1.71429" stroke-linecap="round" stroke-linejoin="round"/>
</g>
<defs>
<clipPath id="clip0_686_438">
<rect width="24" height="24" fill="white"/>
</clipPath>
</defs>
</svg>
