<svg width="24" height="24" viewBox="0 0 24 24" fill="none" xmlns="http://www.w3.org/2000/svg">
<g clip-path="url(#clip0_686_570)">
<path d="M22.2858 16.2857C22.2858 21.0172 18.0001 23.1429 12.0001 23.1429C6.00007 23.1429 1.71436 21.0172 1.71436 16.2857C1.71436 11.1429 4.28578 8.53717 9.42864 5.96574L7.2035 2.48917C7.11616 2.32145 7.07295 2.13427 7.07792 1.94525C7.08288 1.75622 7.13587 1.57157 7.23189 1.40867C7.32792 1.24578 7.46381 1.11 7.62679 1.01411C7.78977 0.918232 7.97447 0.865401 8.1635 0.860596H15.8366C16.0257 0.865401 16.2104 0.918232 16.3733 1.01411C16.5363 1.11 16.6722 1.24578 16.7682 1.40867C16.8643 1.57157 16.9173 1.75622 16.9222 1.94525C16.9272 2.13427 16.884 2.32145 16.7966 2.48917L14.5715 5.96574C19.7144 8.53717 22.2858 11.1429 22.2858 16.2857Z" fill="#72C183"/>
<path d="M22.2858 16.2857C22.2858 21.0172 18.0001 23.1429 12.0001 23.1429C6.00007 23.1429 1.71436 21.0172 1.71436 16.2857C1.71436 11.1429 4.28578 8.53717 9.42864 5.96574L7.2035 2.48917C7.11616 2.32145 7.07295 2.13427 7.07792 1.94525C7.08288 1.75622 7.13587 1.57157 7.23189 1.40867C7.32792 1.24578 7.46381 1.11 7.62679 1.01411C7.78977 0.918232 7.97447 0.865401 8.1635 0.860596H15.8366C16.0257 0.865401 16.2104 0.918232 16.3733 1.01411C16.5363 1.11 16.6722 1.24578 16.7682 1.40867C16.8643 1.57157 16.9173 1.75622 16.9222 1.94525C16.9272 2.13427 16.884 2.32145 16.7966 2.48917L14.5715 5.96574C19.7144 8.53717 22.2858 11.1429 22.2858 16.2857Z" stroke="#1D3F33" stroke-width="1.71429" stroke-linecap="round" stroke-linejoin="round"/>
<path d="M9.42871 6C9.71099 6.42325 10.0934 6.77027 10.5419 7.01029C10.9905 7.2503 11.4914 7.37588 12.0001 7.37588C12.5089 7.37588 13.0098 7.2503 13.4583 7.01029C13.9069 6.77027 14.2893 6.42325 14.5716 6" stroke="#1D3F33" stroke-width="1.71429" stroke-linecap="round" stroke-linejoin="round"/>
</g>
<defs>
<clipPath id="clip0_686_570">
<rect width="24" height="24" fill="white"/>
</clipPath>
</defs>
</svg>
